
 
http://www.imdb.com/title/tt1684548/




Young adults at a first-time offenders' boot camp discover the legend of the giant lumberjack Paul Bunyan is real, but is much more horrifying than they could have imagined. 



Director:
 Gary Jones 

Writers:
 Jeffrey Miller (screenplay), Gary Jones (screenplay)

Stars:
 Joe Estevez, Dan Haggerty, Thomas Downey 

Genres:
  Horror 

Country:
 USA 

Language:
 English 




General
 Complete name                    : Axe.Giant.The.Wrath.Of.Paul.Bunyan.2013.DVDRiP.AC3-5.1.XviD-AXED.avi
 Format                           : AVI
 Format/Info                      : Audio Video Interleave
 File size                        : 1.37 GiB
 Duration                         : 1h 30mn
 Overall bit rate                 : 2 174 Kbps

 Video
 ID                               : 0
 Format                           : MPEG-4 Visual
 Format profile                   : Advanced Simple@L5
 Format settings, BVOP            : 1
 Format settings, QPel            : No
 Format settings, GMC             : No warppoints
 Format settings, Matrix          : Default (H.263)
 Codec ID                         : XVID
 Codec ID/Hint                    : XviD
 Duration                         : 1h 30mn
 Bit rate                         : 1 718 Kbps
 Width                            : 720 pixels
 Height                           : 400 pixels
 Display aspect ratio             : 16:9
 Frame rate                       : 23.976 fps
 Color space                      : YUV
 Chroma subsampling               : 4:2:0
 Bit depth                        : 8 bits
 Scan type                        : Progressive
 Compression mode                 : Lossy
 Bits/(Pixel*Frame)               : 0.249
 Stream size                      : 1.08 GiB (79%)
 Writing library                  : XviD 1.2.1 (UTC 2008-12-04)

 Audio
 ID                               : 1
 Format                           : AC-3
 Format/Info                      : Audio Coding 3
 Mode extension                   : CM (complete main)
 Codec ID                         : 2000
 Duration                         : 1h 30mn
 Bit rate mode                    : Constant
 Bit rate                         : 448 Kbps
 Channel(s)                       : 6 channels
 Channel positions                : Front: L C R, Side: L R, LFE
 Sampling rate                    : 48.0 KHz
 Bit depth                        : 16 bits
 Compression mode                 : Lossy
 Stream size                      : 289 MiB (21%)
 Alignment                        : Aligned on interleaves
 Interleave, duration             : 64 ms (1.53 video frames)
 Interleave, preload duration     : 192 ms
 Title                            : VTS_01_1 T80 3_2ch 448Kbps DELAY 0ms



 SOURCE: 
 R1 Retail DVD



    	http://addpix.net/viewer.php?file=17383372568072190878.jpg
    	http://addpix.net/viewer.php?file=80690435183374305443.jpg
    	http://addpix.net/viewer.php?file=26298221040494172252.jpg
    	http://addpix.net/viewer.php?file=55863948616310074694.jpg